<svg xmlns="http://www.w3.org/2000/svg" viewBox="0 0 448.3 110.88"><g id="Layer_2" data-name="Layer 2"><g id="Layer_1-2" data-name="Layer 1"><path d="M24.01 110.88L0 86.57V0l24.01 24.31v86.57zm29.06-5.63l-16.6 4.15V71.45l16.6-4.15v37.95z" fill="#f47b20"/><path d="M198.33 89.91h.82l1.91 4.51 2-4.51h.14l2 4.51 1.94-4.51h.86l-2.7 6.21h-.15l-2-4.45-2 4.45H201zm27.47 4.15l.68.35a3.62 3.62 0 0 1-.77 1 3 3 0 0 1-1 .61 3.36 3.36 0 0 1-1.22.21 3 3 0 0 1-2.38-1 3.35 3.35 0 0 1-.86-2.25 3.3 3.3 0 0 1 .73-2.11 3 3 0 0 1 2.46-1.17A3.05 3.05 0 0 1 226 91a3.34 3.34 0 0 1 .69 2.13h-5.59a2.56 2.56 0 0 0 .69 1.77 2.23 2.23 0 0 0 1.66.69 2.66 2.66 0 0 0 .92-.16 2.45 2.45 0 0 0 .76-.44 3.68 3.68 0 0 0 .67-.93zm0-1.68a2.71 2.71 0 0 0-.46-1 2.19 2.19 0 0 0-.81-.62 2.45 2.45 0 0 0-1.06-.24 2.29 2.29 0 0 0-1.57.59 2.72 2.72 0 0 0-.73 1.28zm29.04 3.74v-8.61h.8V91a3.36 3.36 0 0 1 1.12-.93 3.08 3.08 0 0 1 1.36-.3 3 3 0 0 1 2.25 1 3.24 3.24 0 0 1 .94 2.33 3.17 3.17 0 0 1-.95 2.3 3.07 3.07 0 0 1-2.26 1 2.83 2.83 0 0 1-1.37-.33 3 3 0 0 1-1.09-1v1.14zm3.19-.61a2.36 2.36 0 0 0 1.23-.33 2.41 2.41 0 0 0 .9-.92 2.57 2.57 0 0 0 0-2.52 2.51 2.51 0 0 0-.9-.93 2.29 2.29 0 0 0-1.21-.34 2.42 2.42 0 0 0-1.25.34 2.29 2.29 0 0 0-.9.9 2.45 2.45 0 0 0-.32 1.27 2.47 2.47 0 0 0 .71 1.8 2.31 2.31 0 0 0 1.71.73zm16.32-5.6h.8v2.9a6 6 0 0 0 .11 1.46 1.62 1.62 0 0 0 .66.9 2 2 0 0 0 1.15.33 1.9 1.9 0 0 0 1.13-.32 1.59 1.59 0 0 0 .64-.85 6 6 0 0 0 .12-1.52v-2.9h.82v3a4.8 4.8 0 0 1-.3 1.93 2.24 2.24 0 0 1-.9 1 2.79 2.79 0 0 1-1.51.37 2.85 2.85 0 0 1-1.52-.37 2.26 2.26 0 0 1-.9-1 5 5 0 0 1-.3-2zm19.17-2.56a.67.67 0 0 1 .47.19.66.66 0 0 1 .19.47.64.64 0 0 1-.19.47.66.66 0 0 1-.93 0 .64.64 0 0 1-.19-.47.65.65 0 0 1 .65-.66zm-.39 2.56h.8v6.21h-.8zm14.03-2.4h.84v8.61h-.79zm20.34 0v8.61h-.78v-1.07a3.48 3.48 0 0 1-1.13.92 3.13 3.13 0 0 1-1.37.31 3 3 0 0 1-2.25-1A3.19 3.19 0 0 1 321 93a3.15 3.15 0 0 1 .94-2.3 3.09 3.09 0 0 1 2.27-1 2.87 2.87 0 0 1 1.38.33 3.2 3.2 0 0 1 1.09 1v-3.52zm-3.19 3a2.39 2.39 0 0 0-1.23.33 2.34 2.34 0 0 0-.9.92 2.51 2.51 0 0 0-.33 1.25 2.58 2.58 0 0 0 .33 1.26 2.54 2.54 0 0 0 .91.93 2.38 2.38 0 0 0 1.22.33 2.5 2.5 0 0 0 1.24-.33 2.33 2.33 0 0 0 .9-.89 2.59 2.59 0 0 0 .32-1.28 2.51 2.51 0 0 0-.71-1.8 2.38 2.38 0 0 0-1.75-.71zM356 96.12v-8.61h.8V91a3.36 3.36 0 0 1 1.12-.93 3.12 3.12 0 0 1 1.37-.3 3 3 0 0 1 2.24 1 3.2 3.2 0 0 1 .94 2.33 3.16 3.16 0 0 1-.94 2.3 3.11 3.11 0 0 1-2.27 1 2.86 2.86 0 0 1-1.37-.33 3.2 3.2 0 0 1-1.09-1v1.14zm3.2-.61a2.41 2.41 0 0 0 1.23-.33 2.46 2.46 0 0 0 .89-.92 2.49 2.49 0 0 0 .34-1.26 2.59 2.59 0 0 0-.34-1.26 2.37 2.37 0 0 0-.9-.93 2.29 2.29 0 0 0-1.21-.34 2.45 2.45 0 0 0-1.25.34 2.29 2.29 0 0 0-.9.9 2.55 2.55 0 0 0-.32 1.27 2.47 2.47 0 0 0 .71 1.8 2.33 2.33 0 0 0 1.73.73zm21.62-1.45l.67.35a3.6 3.6 0 0 1-.76 1 3 3 0 0 1-1 .61 3.37 3.37 0 0 1-1.23.21 2.94 2.94 0 0 1-2.37-1 3.41 3.41 0 0 1-.14-4.36 3 3 0 0 1 2.47-1.17A3.05 3.05 0 0 1 381 91a3.4 3.4 0 0 1 .69 2.13h-5.59a2.56 2.56 0 0 0 .69 1.77 2.22 2.22 0 0 0 1.65.69 2.68 2.68 0 0 0 .93-.16 2.57 2.57 0 0 0 .76-.44 3.68 3.68 0 0 0 .69-.93zm0-1.68a2.56 2.56 0 0 0-.47-1 2.08 2.08 0 0 0-.8-.62 2.45 2.45 0 0 0-1.06-.24 2.29 2.29 0 0 0-1.57.59 2.72 2.72 0 0 0-.73 1.28zm14.76-4.78h.79v2.31h1.27v.69h-1.27v5.52h-.79V90.6h-1.09v-.69h1.09zm15.65 0h.77v2.31h1.27v.69H412v5.52h-.79V90.6h-1.09v-.69h1.09zm20.18 6.46l.67.35a3.6 3.6 0 0 1-.76 1 3 3 0 0 1-1 .61 3.37 3.37 0 0 1-1.23.21 3 3 0 0 1-2.38-1 3.43 3.43 0 0 1-.13-4.36 3 3 0 0 1 2.46-1.17 3.06 3.06 0 0 1 2.56 1.3 3.4 3.4 0 0 1 .69 2.13h-5.59a2.56 2.56 0 0 0 .69 1.77 2.22 2.22 0 0 0 1.65.69 2.68 2.68 0 0 0 .93-.16 2.57 2.57 0 0 0 .76-.44 4 4 0 0 0 .68-.93zm0-1.68a2.56 2.56 0 0 0-.47-1 2.08 2.08 0 0 0-.8-.62 2.45 2.45 0 0 0-1.06-.24 2.27 2.27 0 0 0-1.57.59 2.64 2.64 0 0 0-.73 1.28zm13.75-2.47h.84v.91a2.69 2.69 0 0 1 .77-.8 1.5 1.5 0 0 1 .85-.27 1.44 1.44 0 0 1 .7.21l-.41.67a1.18 1.18 0 0 0-.43-.11 1.17 1.17 0 0 0-.77.33 2.15 2.15 0 0 0-.56 1A9.73 9.73 0 0 0 446 94v2.1h-.82zM83.86 32.65h3l6.38 15.51 6.37-15.51h3l-7.51 18 9 20.81 16.35-39.08h3.36L105.5 75h-2.83L93.3 53.09 83.86 75H81L62.82 32.35h3.3l16.41 39.08 8.84-20.81zM142.35 75V32.41h3.07V75zm29.46-36.88V75h-3.07V32.35h2.35L201 69.92V32.41h3.06V75h-2.82zM227.42 75V32.35h14.18a21.83 21.83 0 0 1 8.87 1.65 17.79 17.79 0 0 1 6.34 4.57 19 19 0 0 1 3.79 6.76 26.66 26.66 0 0 1 1.26 8.27 26 26 0 0 1-1.41 8.81 19 19 0 0 1-4.05 6.73 18 18 0 0 1-6.4 4.36 22 22 0 0 1-8.4 1.5zm31.38-21.4a23.18 23.18 0 0 0-1.14-7.42 16.65 16.65 0 0 0-3.34-5.86 15.1 15.1 0 0 0-5.38-3.85 18.34 18.34 0 0 0-7.34-1.38h-11.12v37.18h11.12a18.17 18.17 0 0 0 7.4-1.42 14.83 14.83 0 0 0 5.38-3.93 17.51 17.51 0 0 0 3.31-5.92 23.62 23.62 0 0 0 1.11-7.37zm48.69-14.16q-4.14-4.62-11.72-4.63c-4.17 0-7.2.8-9.11 2.38a7.9 7.9 0 0 0-2.85 6.4 7.38 7.38 0 0 0 .72 3.43 5.92 5.92 0 0 0 2.25 2.31 16.61 16.61 0 0 0 3.91 1.67c1.58.46 3.46.91 5.62 1.35a63.54 63.54 0 0 1 6.25 1.59 17.66 17.66 0 0 1 4.72 2.2 9.2 9.2 0 0 1 3 3.24 9.81 9.81 0 0 1 1 4.75 10.4 10.4 0 0 1-1.05 4.87 9.86 9.86 0 0 1-3.13 3.52 14.62 14.62 0 0 1-4.81 2.13 24.94 24.94 0 0 1-6.22.72A24 24 0 0 1 279.18 69l1.62-2.46a19.76 19.76 0 0 0 6.61 4.46 22.38 22.38 0 0 0 8.78 1.65c3.73 0 6.64-.68 8.75-2a6.88 6.88 0 0 0 3.16-6.19 7.3 7.3 0 0 0-.82-3.57 7.14 7.14 0 0 0-2.49-2.56 17.34 17.34 0 0 0-4.18-1.86c-1.66-.52-3.62-1-5.86-1.51s-4.3-1-6-1.53a16.33 16.33 0 0 1-4.42-2 8.24 8.24 0 0 1-2.71-3 9.5 9.5 0 0 1-.9-4.39 11.33 11.33 0 0 1 1.11-5.11 10.8 10.8 0 0 1 3.1-3.75 13.68 13.68 0 0 1 4.75-2.32 22.55 22.55 0 0 1 6.13-.78 20.8 20.8 0 0 1 7.4 1.23 17.43 17.43 0 0 1 5.85 3.69zm41 35.89a17.66 17.66 0 0 1-8.11-1.86 20.73 20.73 0 0 1-6.31-4.87 21.62 21.62 0 0 1-4.07-6.91 23 23 0 0 1-1.45-8 22.21 22.21 0 0 1 1.54-8.17 22.73 22.73 0 0 1 4.21-6.92 20.21 20.21 0 0 1 6.34-4.78 18 18 0 0 1 7.93-1.77 17.44 17.44 0 0 1 8.12 1.89 20.6 20.6 0 0 1 6.28 5 22.8 22.8 0 0 1 4.06 7 22.58 22.58 0 0 1-4.3 23 20.5 20.5 0 0 1-6.31 4.75 17.81 17.81 0 0 1-7.93 1.64zM331.6 53.69a20.62 20.62 0 0 0 1.23 7.07 19.23 19.23 0 0 0 3.49 6 17.28 17.28 0 0 0 5.35 4.17 15.66 15.66 0 0 0 13.77 0 17.6 17.6 0 0 0 5.32-4.3 20.28 20.28 0 0 0 3.36-20 19.44 19.44 0 0 0-3.51-6 17.28 17.28 0 0 0-5.35-4.18 15.55 15.55 0 0 0-13.74.06 16.74 16.74 0 0 0-5.32 4.3 20 20 0 0 0-3.4 6 20.26 20.26 0 0 0-1.2 6.88zM389 75V32.35h17.8a11.05 11.05 0 0 1 5 1.14 12.39 12.39 0 0 1 3.91 3 14.72 14.72 0 0 1 2.55 4.27 13 13 0 0 1 .93 4.77 14.43 14.43 0 0 1-.72 4.54 13.27 13.27 0 0 1-2 3.94 11.72 11.72 0 0 1-3.19 2.89 11.19 11.19 0 0 1-4.09 1.5l10.6 16.6h-3.54l-10.34-16.08h-13.83V75zm3.07-18.93h15a7.76 7.76 0 0 0 3.72-.91 9.35 9.35 0 0 0 2.89-2.37 10.57 10.57 0 0 0 1.83-3.37 12.19 12.19 0 0 0 .64-3.88 10.57 10.57 0 0 0-.76-3.93 11 11 0 0 0-2-3.34 10.13 10.13 0 0 0-3-2.31 8 8 0 0 0-3.69-.87h-14.62z" fill="#6a747c"/></g></g></svg>